<?xml version="1.0" standalone="no"?>
<!DOCTYPE svg PUBLIC "-//W3C//DTD SVG 20010904//EN"
 "http://www.w3.org/TR/2001/REC-SVG-20010904/DTD/svg10.dtd">
<svg version="1.0" xmlns="http://www.w3.org/2000/svg"
 width="200.000000pt" height="200.000000pt" viewBox="0 0 200.000000 200.000000"
 preserveAspectRatio="xMidYMid meet">
<metadata>
Created by potrace 1.11, written by Peter Selinger 2001-2013
</metadata>
<g transform="translate(0.000000,200.000000) scale(0.100000,-0.100000)"
fill="#000000" stroke="none">
<path d="M971 1926 c-22 -11 -897 -1500 -908 -1545 -5 -19 1 -31 24 -52 101
-90 394 -210 573 -235 25 -3 48 -8 52 -10 40 -24 473 -24 588 0 14 3 50 11 80
17 170 35 378 119 497 201 75 51 76 68 5 188 -25 41 -68 116 -97 165 -29 50
-116 200 -195 335 -79 135 -151 259 -160 275 -10 17 -76 131 -149 253 -72 123
-131 225 -131 227 0 2 -24 43 -54 91 -57 93 -84 113 -125 90z m400 -811 c199
-341 371 -636 381 -655 11 -19 25 -41 30 -48 13 -16 17 -13 -72 -60 -119 -63
-298 -123 -415 -138 -22 -3 -65 -9 -95 -14 -59 -10 -378 -6 -445 4 -22 4 -58
11 -80 16 -22 5 -54 11 -71 14 -65 12 -193 59 -291 107 -97 48 -102 52 -92 72
7 12 42 74 79 137 37 63 194 331 348 595 366 628 346 595 354 592 4 -1 170
-281 369 -622z"/>
<path d="M779 921 c-20 -16 -24 -28 -24 -75 0 -67 26 -103 69 -92 33 8 49 40
48 96 0 35 -6 49 -27 67 -32 28 -36 28 -66 4z"/>
<path d="M1160 927 c-36 -29 -45 -100 -19 -149 16 -29 58 -34 82 -9 33 32 31
125 -2 152 -27 22 -40 23 -61 6z"/>
<path d="M607 683 c-46 -12 -59 -131 -17 -165 31 -25 57 -22 77 8 32 50 19
142 -22 158 -9 3 -17 5 -18 5 -1 -1 -10 -3 -20 -6z"/>
<path d="M1341 671 c-37 -37 -35 -129 4 -161 39 -33 94 22 90 90 -3 46 -2 43
-25 68 -25 27 -44 28 -69 3z"/>
<path d="M983 619 c-38 -14 -56 -75 -38 -129 11 -34 30 -50 58 -50 33 0 57 38
57 90 0 68 -33 106 -77 89z"/>
</g>
</svg>
